<svg width="24" height="24" viewBox="0 0 24 24" fill="none" xmlns="http://www.w3.org/2000/svg">
<path d="M14.7773 17.5938C14.6133 17.4531 14.5312 17.2656 14.5312 17.0312C14.5312 16.7969 14.6133 16.5977 14.7773 16.4336L18.1172 13.0938H3.84375C3.32812 13.0469 3.04688 12.7539 3 12.2148C3.04688 11.7227 3.32812 11.4531 3.84375 11.4062H18.1172L14.7773 8.06641C14.4492 7.66797 14.4492 7.26953 14.7773 6.87109C15.1758 6.54297 15.5742 6.54297 15.9727 6.87109L20.7539 11.6523C21.082 12.0508 21.082 12.4492 20.7539 12.8477L15.9727 17.6289C15.5742 17.957 15.1758 17.9453 14.7773 17.5938Z" fill="#21325E"/>
</svg>
