<svg width="19" height="13" viewBox="0 0 19 13" fill="none" xmlns="http://www.w3.org/2000/svg">
<path d="M11.7773 11.5938C11.6133 11.4531 11.5312 11.2656 11.5312 11.0312C11.5312 10.7969 11.6133 10.5977 11.7773 10.4336L15.1172 7.09375H0.84375C0.328125 7.04688 0.046875 6.75391 0 6.21484C0.046875 5.72266 0.328125 5.45312 0.84375 5.40625H15.1172L11.7773 2.06641C11.4492 1.66797 11.4492 1.26953 11.7773 0.871094C12.1758 0.542969 12.5742 0.542969 12.9727 0.871094L17.7539 5.65234C18.082 6.05078 18.082 6.44922 17.7539 6.84766L12.9727 11.6289C12.5742 11.957 12.1758 11.9453 11.7773 11.5938Z" fill="white"/>
</svg>
