<svg width="60" height="60" viewBox="0 0 60 60" fill="none" xmlns="http://www.w3.org/2000/svg">
<path d="M17.5 14.9995C16.1201 15.0003 15.0008 13.8823 15 12.5024C15 12.5014 15 12.5005 15 12.4995V7.49951C15 6.11881 16.1193 4.99951 17.5 4.99951C18.8807 4.99951 20 6.11881 20 7.49951V12.4995C20.0008 13.8794 18.8828 14.9987 17.5029 14.9995C17.5019 14.9995 17.501 14.9995 17.5 14.9995ZM42.5 14.9995C41.1201 15.0003 40.0008 13.8823 40 12.5024C40 12.5014 40 12.5005 40 12.4995V7.49951C40 6.11881 41.1193 4.99951 42.5 4.99951C43.8807 4.99951 45 6.11881 45 7.49951V12.4995C45.0008 13.8794 43.8828 14.9987 42.5029 14.9995C42.5019 14.9995 42.5009 14.9995 42.5 14.9995Z" fill="white"/>
<path d="M47.5 10.0005H45V12.4993C45 13.88 43.8807 14.9993 42.5 14.9993C41.1193 14.9993 40 13.88 40 12.4993V10.0005H20V12.4993C20 13.88 18.8807 14.9993 17.5 14.9993C16.1193 14.9993 15 13.88 15 12.4993V10.0005H12.5C8.35788 10.0005 5 13.3584 5 17.5005V22.5005H55V17.5005C55 13.3584 51.6421 10.0005 47.5 10.0005Z" fill="#FF0000"/>
<path d="M17.5 35C18.8807 35 20 33.8807 20 32.5C20 31.1193 18.8807 30 17.5 30C16.1193 30 15 31.1193 15 32.5C15 33.8807 16.1193 35 17.5 35Z" fill="#21325E"/>
<path d="M17.5 45C18.8807 45 20 43.8807 20 42.5C20 41.1193 18.8807 40 17.5 40C16.1193 40 15 41.1193 15 42.5C15 43.8807 16.1193 45 17.5 45Z" fill="#21325E"/>
<path d="M30 35C31.3807 35 32.5 33.8807 32.5 32.5C32.5 31.1193 31.3807 30 30 30C28.6193 30 27.5 31.1193 27.5 32.5C27.5 33.8807 28.6193 35 30 35Z" fill="#21325E"/>
<path d="M30 45C31.3807 45 32.5 43.8807 32.5 42.5C32.5 41.1193 31.3807 40 30 40C28.6193 40 27.5 41.1193 27.5 42.5C27.5 43.8807 28.6193 45 30 45Z" fill="#21325E"/>
<path d="M42.5 35C43.8807 35 45 33.8807 45 32.5C45 31.1193 43.8807 30 42.5 30C41.1193 30 40 31.1193 40 32.5C40 33.8807 41.1193 35 42.5 35Z" fill="#21325E"/>
<path d="M42.5 45C43.8807 45 45 43.8807 45 42.5C45 41.1193 43.8807 40 42.5 40C41.1193 40 40 41.1193 40 42.5C40 43.8807 41.1193 45 42.5 45Z" fill="#21325E"/>
<path d="M5 22.5005V47.5005C5 51.6426 8.35788 55.0005 12.5 55.0005H47.5C51.6421 55.0005 55 51.6426 55 47.5005V22.5005H5ZM17.5 45.0005C16.1193 45.0005 15 43.8812 15 42.5005C15 41.1198 16.1193 40.0005 17.5 40.0005C18.8807 40.0005 20 41.1198 20 42.5005C20 43.8812 18.8807 45.0005 17.5 45.0005ZM17.5 35.0005C16.1193 35.0005 15 33.8812 15 32.5005C15 31.1198 16.1193 30.0005 17.5 30.0005C18.8807 30.0005 20 31.1198 20 32.5005C20 33.8812 18.8807 35.0005 17.5 35.0005ZM30 45.0005C28.6193 45.0005 27.5 43.8812 27.5 42.5005C27.5 41.1198 28.6193 40.0005 30 40.0005C31.3807 40.0005 32.5 41.1198 32.5 42.5005C32.5 43.8812 31.3807 45.0005 30 45.0005ZM30 35.0005C28.6193 35.0005 27.5 33.8812 27.5 32.5005C27.5 31.1198 28.6193 30.0005 30 30.0005C31.3807 30.0005 32.5 31.1198 32.5 32.5005C32.5 33.8812 31.3807 35.0005 30 35.0005ZM42.5 45.0005C41.1193 45.0005 40 43.8812 40 42.5005C40 41.1198 41.1193 40.0005 42.5 40.0005C43.8807 40.0005 45 41.1198 45 42.5005C45 43.8812 43.8807 45.0005 42.5 45.0005ZM42.5 35.0005C41.1193 35.0005 40 33.8812 40 32.5005C40 31.1198 41.1193 30.0005 42.5 30.0005C43.8807 30.0005 45 31.1198 45 32.5005C45 33.8812 43.8807 35.0005 42.5 35.0005Z" fill="white"/>
</svg>
