<svg width="16" height="17" viewBox="0 0 16 17" fill="none" xmlns="http://www.w3.org/2000/svg">
<path d="M10.7812 4.375C10.4375 4.09375 9.96875 4.15625 9.71875 4.46875C9.4375 4.78125 9.5 5.25 9.8125 5.53125C10.875 6.40625 11.4688 7.65625 11.4688 9C11.4688 10.3125 10.875 11.5938 9.8125 12.4688C9.5 12.7188 9.4375 13.1875 9.71875 13.5C9.875 13.6875 10.0625 13.7812 10.2812 13.7812C10.4688 13.7812 10.625 13.7188 10.7812 13.625C12.1875 12.5 13 10.8125 13 9C13 7.21875 12.1875 5.53125 10.7812 4.375ZM12.6875 2.0625C12.375 1.78125 11.9062 1.84375 11.625 2.15625C11.375 2.46875 11.4062 2.9375 11.7188 3.21875C13.4688 4.65625 14.5 6.75 14.5 9C14.5 11.25 13.4688 13.3438 11.7188 14.7812C11.4062 15.0625 11.375 15.5312 11.625 15.8438C11.7812 16.0312 12 16.125 12.2188 16.125C12.375 16.125 12.5312 16.0625 12.6875 15.9375C14.7812 14.25 16 11.7188 16 9C16 6.3125 14.7812 3.78125 12.6875 2.0625ZM4.9375 7.4375C5.59375 7.5 6.1875 7.125 6.4375 6.53125L7.375 4.15625C7.625 3.5 7.40625 2.78125 6.8125 2.40625L4.90625 1.25C4.34375 0.875 3.59375 0.96875 3.125 1.4375C1.09375 3.46875 0 6.15625 0 9C0 11.8438 1.09375 14.5312 3.125 16.5625C3.40625 16.875 3.78125 17 4.125 17C4.40625 17 4.65625 16.9375 4.90625 16.7812L6.8125 15.5938C7.40625 15.25 7.625 14.5 7.375 13.8438L6.4375 11.4688C6.1875 10.875 5.59375 10.5 4.96875 10.5625L4.0625 10.6562C3.78125 9.59375 3.78125 8.4375 4.0625 7.375L4.9375 7.4375ZM2.8125 11.7188C2.90625 12.0312 3.21875 12.25 3.59375 12.2188L5.03125 12.0312L6.03125 14.3125L4.1875 15.5312C2.4375 13.7812 1.5 11.4688 1.5 9C1.5 6.53125 2.4375 4.25 4.15625 2.5L6 3.59375L5.09375 5.96875L3.59375 5.8125C3.25 5.78125 2.90625 5.96875 2.8125 6.3125C2.21875 8.0625 2.21875 9.96875 2.8125 11.7188ZM8.875 6.6875C8.5625 6.4375 8.09375 6.5 7.8125 6.8125C7.5625 7.125 7.59375 7.59375 7.9375 7.875C8.28125 8.15625 8.5 8.5625 8.5 9C8.5 9.46875 8.28125 9.875 7.9375 10.1562C7.59375 10.4375 7.5625 10.9062 7.8125 11.2188C7.96875 11.4062 8.1875 11.5 8.40625 11.5C8.5625 11.5 8.75 11.4375 8.875 11.3438C9.59375 10.75 9.96875 9.90625 9.96875 9C9.96875 8.125 9.59375 7.28125 8.875 6.6875Z" fill="white"/>
</svg>
