<svg width="91" height="90" viewBox="0 0 91 90" fill="none" xmlns="http://www.w3.org/2000/svg">
<path d="M45.6585 24.0098C31.0976 24.0098 18.8739 31.2056 15.3788 40.9484H7.62929C3.76921 40.9484 0.666687 44.0051 0.666687 47.8081V52.3756C0.666687 56.1787 3.76921 59.2522 7.62929 59.2522H11.3415C11.3054 58.8943 11.2901 58.524 11.2901 58.1567C11.2901 52.1888 16.1985 47.353 22.2558 47.353C28.3132 47.353 33.2214 52.1888 33.2214 58.1567C33.2214 58.524 33.2067 58.8943 33.17 59.2522H56.8292C56.793 58.8943 56.7777 58.524 56.7777 58.1567C56.7777 52.1888 61.686 47.353 67.7434 47.353C73.8007 47.353 78.7091 52.1888 78.7091 58.1567C78.7091 58.524 78.6941 58.8943 78.6575 59.2522H83.7041C87.5642 59.2522 90.6667 56.1787 90.6667 52.3756V47.8081C90.6673 44.0051 87.5649 40.9484 83.7047 40.9484H75.9552C72.4562 31.2056 60.2194 24.0098 45.6585 24.0098Z" fill="#FF0000"/>
<path fill-rule="evenodd" clip-rule="evenodd" d="M30.2073 58.154C30.2073 62.482 26.6461 65.9905 22.2531 65.9905C17.8602 65.9905 14.299 62.482 14.299 58.154C14.299 53.8259 17.8602 50.3174 22.2531 50.3174C26.6461 50.3174 30.2073 53.8259 30.2073 58.154Z" fill="#21325E"/>
<path fill-rule="evenodd" clip-rule="evenodd" d="M75.6904 58.154C75.6904 62.482 72.1292 65.9905 67.7363 65.9905C63.3433 65.9905 59.7821 62.482 59.7821 58.154C59.7821 53.8259 63.3433 50.3174 67.7363 50.3174C72.1292 50.3174 75.6904 53.8259 75.6904 58.154Z" fill="#21325E"/>
<path d="M42.3736 29.4985C33.2821 30.3863 25.7726 34.9024 22.7175 40.9595H42.3736V29.4985ZM48.9428 29.4985V40.9595H68.5989C65.5386 34.8986 58.0413 30.3823 48.9428 29.4985Z" fill="#21325E"/>
<path fill-rule="evenodd" clip-rule="evenodd" d="M81.7717 40.9424C81.6463 41.3833 81.5664 41.843 81.5664 42.3244C81.5664 45.1503 83.8816 47.4313 86.7499 47.4313H90.6503C90.4475 43.81 87.4328 40.9424 83.7048 40.9424H81.7717Z" fill="#21325E"/>
<path fill-rule="evenodd" clip-rule="evenodd" d="M9.54536 40.9424C9.67083 41.3833 9.75065 41.843 9.75065 42.3244C9.75065 45.1503 7.43537 47.4313 4.56712 47.4313H0.666687C0.869455 43.8101 3.88426 40.9424 7.61225 40.9424H9.54536Z" fill="#21325E"/>
</svg>
