<svg width="90" height="90" viewBox="0 0 90 90" fill="none" xmlns="http://www.w3.org/2000/svg">
<g clip-path="url(#clip0_2636_424)">
<path d="M37.9688 21.0938H59.7657L78.0469 43.5938H85.7813V57.6562H37.9688V21.0938Z" fill="#FF0000"/>
<path fill-rule="evenodd" clip-rule="evenodd" d="M6.10352e-05 61.875H39.3751L70.3126 67.5V73.125H2.81256C1.26569 73.125 6.10352e-05 71.8594 6.10352e-05 70.3125V61.875Z" fill="#FF0000"/>
<path d="M39.3751 21.0938H33.7501V67.5H85.7813L84.3751 56.25C84.3751 53.1562 81.8438 50.625 78.7501 50.625H61.8751C49.5001 50.625 39.3751 48.0938 39.3751 45V21.0938Z" fill="#21325E"/>
<path d="M61.8751 33.75H71.7188L75.9376 45H66.0938C63.7032 45 61.8751 43.1719 61.8751 40.7812V33.75Z" fill="white"/>
<path d="M56.2501 14.0625V18.9844L56.9532 21.7969L56.2501 23.9062V67.5H50.6251V23.2031L49.9219 21.0938L50.6251 18.2812V14.0625C50.6251 12.5156 49.3594 11.25 47.8126 11.25H45.0001V5.625H47.8126C52.4532 5.625 56.2501 9.42188 56.2501 14.0625ZM8.43756 66.0938C6.04694 66.0938 4.21881 67.9219 4.21881 70.3125C4.21881 72.7031 6.04694 74.5312 8.43756 74.5312C10.8282 74.5312 12.6563 72.7031 12.6563 70.3125C12.6563 67.9219 10.8282 66.0938 8.43756 66.0938ZM29.5313 70.3125C29.5313 72.7031 27.7032 74.5312 25.3126 74.5312C22.9219 74.5312 21.0938 72.7031 21.0938 70.3125C21.0938 67.9219 22.9219 66.0938 25.3126 66.0938C27.7032 66.0938 29.5313 67.9219 29.5313 70.3125ZM71.7188 70.3125C71.7188 67.9219 73.5469 66.0938 75.9376 66.0938C78.3282 66.0938 80.1563 67.9219 80.1563 70.3125C80.1563 72.7031 78.3282 74.5312 75.9376 74.5312C73.5469 74.5312 71.7188 72.7031 71.7188 70.3125Z" fill="white"/>
<path fill-rule="evenodd" clip-rule="evenodd" d="M56.2501 18.5625V24.3281C62.5782 26.1562 67.7813 30.6562 70.1719 36.9844L73.2657 45H78.7501C81.8438 45 84.3751 47.5312 84.3751 50.625V67.5H83.9532C82.8282 64.2656 79.7344 61.875 75.9376 61.875C71.2969 61.875 67.5001 65.6719 67.5001 70.3125C67.5001 74.9531 71.2969 78.75 75.9376 78.75C79.5938 78.75 82.6876 76.3594 83.9532 73.125H90.0001V50.625C90.0001 44.4375 84.9376 39.375 78.7501 39.375H77.2032L75.3751 34.875C72.1407 26.5781 64.8282 20.5312 56.2501 18.5625ZM8.43756 61.875C3.79694 61.875 6.10352e-05 65.6719 6.10352e-05 70.3125C6.10352e-05 74.9531 3.79694 78.75 8.43756 78.75C13.0782 78.75 16.8751 74.9531 16.8751 70.3125C16.8751 74.9531 20.6719 78.75 25.3126 78.75C29.9532 78.75 33.7501 74.9531 33.7501 70.3125C33.7501 65.6719 29.9532 61.875 25.3126 61.875C20.6719 61.875 16.8751 65.6719 16.8751 70.3125C16.8751 65.6719 13.0782 61.875 8.43756 61.875ZM73.1251 70.3125C73.1251 68.7656 74.3907 67.5 75.9376 67.5C77.4844 67.5 78.7501 68.7656 78.7501 70.3125C78.7501 71.8594 77.4844 73.125 75.9376 73.125C74.3907 73.125 73.1251 71.8594 73.1251 70.3125ZM22.5001 70.3125C22.5001 68.7656 23.7657 67.5 25.3126 67.5C26.8594 67.5 28.1251 68.7656 28.1251 70.3125C28.1251 71.8594 26.8594 73.125 25.3126 73.125C23.7657 73.125 22.5001 71.8594 22.5001 70.3125ZM5.62506 70.3125C5.62506 68.7656 6.89069 67.5 8.43756 67.5C9.98444 67.5 11.2501 68.7656 11.2501 70.3125C11.2501 71.8594 9.98444 73.125 8.43756 73.125C6.89069 73.125 5.62506 71.8594 5.62506 70.3125ZM50.6251 17.8594V23.4844L42.0469 22.5H33.7501V16.875H42.3282L50.6251 17.8594Z" fill="#21325E"/>
</g>
<defs>
<clipPath id="clip0_2636_424">
<rect width="90" height="90" fill="white"/>
</clipPath>
</defs>
</svg>
