<svg width="91" height="90" viewBox="0 0 91 90" fill="none" xmlns="http://www.w3.org/2000/svg">
<g clip-path="url(#clip0_2636_392)">
<path d="M17.124 38.2593H12.4365L11.1896 31.5937C11.1312 31.2607 11.1459 30.9189 11.2325 30.5921C11.3192 30.2652 11.4758 29.9611 11.6916 29.7008C11.9073 29.4405 12.1771 29.2301 12.4821 29.0843C12.7872 28.9384 13.1203 28.8606 13.4584 28.8562C13.998 28.8547 14.5214 29.041 14.9387 29.3831C15.3561 29.7252 15.6415 30.2018 15.7459 30.7312L17.124 38.2593Z" fill="#21325E"/>
<path d="M58.5615 37.6406L53.2646 39.6187L47.8646 25.1343L50.5177 24.8343C50.949 24.7869 51.3844 24.8719 51.7662 25.0778C52.148 25.2838 52.4581 25.6011 52.6552 25.9875L58.5615 37.6406Z" fill="#D1EBF6"/>
<path d="M85.6458 55.0033H5.82707C5.13999 55.0027 4.46013 54.8631 3.82847 54.5927C3.19681 54.3224 2.62641 53.9269 2.15164 53.4303C1.67688 52.9336 1.30756 52.346 1.06596 51.7028C0.824351 51.0596 0.715451 50.3741 0.74582 49.6877L1.04582 42.6564C1.09807 41.5617 1.50355 40.5133 2.20154 39.6682C2.89954 38.8232 3.85249 38.227 4.91769 37.9689L17.1052 34.9877C17.9222 34.7885 18.7832 34.8832 19.5374 35.2552C20.2916 35.6271 20.8909 36.2526 21.2302 37.0221L21.8958 38.5127C22.1271 39.0416 22.5073 39.4916 22.9901 39.8079C23.4729 40.1243 24.0374 40.2931 24.6146 40.2939H42.9427C44.4551 40.2904 45.9388 39.8805 47.2384 39.1069C48.5381 38.3334 49.6059 37.2248 50.3302 35.8971L51.2114 34.2658C51.2677 34.1627 85.6552 37.8002 85.5614 37.7814C86.5722 37.8961 87.5104 38.3629 88.2115 39.1C88.9126 39.8371 89.3318 40.7974 89.3958 41.8127L89.8927 50.4471C89.927 51.0284 89.8429 51.6106 89.6456 52.1585C89.4483 52.7064 89.1418 53.2085 88.7448 53.6345C88.3477 54.0605 87.8684 54.4014 87.3357 54.6367C86.803 54.872 86.2281 54.9967 85.6458 55.0033Z" fill="#FF0000"/>
<path d="M78.8959 37.0967C49.9834 34.1061 51.3052 34.2092 51.2115 34.2842C50.6985 35.4189 50.0432 36.4837 49.2615 37.4529L78.549 40.4811C78.785 40.5075 79.024 40.4837 79.2502 40.4114C79.4765 40.3391 79.6849 40.2198 79.8619 40.0614C80.0389 39.903 80.1804 39.7091 80.2773 39.4922C80.3741 39.2753 80.4241 39.0405 80.424 38.8029C80.4328 38.3779 80.2799 37.9653 79.9963 37.6486C79.7126 37.3318 79.3193 37.1346 78.8959 37.0967Z" fill="#21325E"/>
<path d="M20.9583 36.6187L8.87396 39.5999C7.80875 39.858 6.8558 40.4542 6.15781 41.2992C5.45981 42.1442 5.05433 43.1926 5.00209 44.2874L4.70209 51.3749C4.64709 52.7113 5.12219 54.0153 6.02396 55.003C5.32089 55.0298 4.61992 54.9102 3.96546 54.6519C3.311 54.3936 2.71732 54.0022 2.22202 53.5025C1.72672 53.0028 1.34059 52.4057 1.0881 51.749C0.835608 51.0922 0.722252 50.3902 0.755213 49.6874L1.04584 42.6562C1.09808 41.5614 1.50356 40.513 2.20156 39.668C2.89955 38.8229 3.8525 38.2268 4.91771 37.9687L17.1052 34.9874C17.8374 34.8211 18.6034 34.8891 19.2948 35.1818C19.9862 35.4745 20.5682 35.9772 20.9583 36.6187Z" fill="#21325E"/>
<path d="M11.8178 42.1876L0.942749 45.2626L1.04587 42.6563C1.09812 41.5616 1.5036 40.5132 2.20159 39.6681C2.89959 38.8231 3.85254 38.2269 4.91775 37.9688L13.1678 35.9438L13.9459 38.0626C14.092 38.4725 14.1523 38.908 14.1232 39.3422C14.0941 39.7764 13.9761 40.2 13.7766 40.5867C13.5771 40.9735 13.3003 41.3151 12.9633 41.5905C12.6264 41.8658 12.2365 42.0691 11.8178 42.1876ZM46.7771 48.9095V39.3751C45.5953 39.9887 44.2837 40.3101 42.9521 40.3126H28.5709C28.5709 49.4438 28.2896 45.5251 29.9959 49.5095C30.1661 49.9146 30.4513 50.261 30.8162 50.5059C31.181 50.7508 31.6096 50.8835 32.049 50.8876H44.8178C45.0763 50.8864 45.3321 50.8342 45.5704 50.7342C45.8088 50.6341 46.0252 50.488 46.2071 50.3043C46.3891 50.1207 46.5331 49.9029 46.6309 49.6636C46.7287 49.4243 46.7784 49.168 46.7771 48.9095Z" fill="#21325E"/>
<path d="M41.9115 47.6439H38.6865C38.4384 47.6198 38.2082 47.5042 38.0406 47.3196C37.8731 47.135 37.7803 46.8947 37.7803 46.6454C37.7803 46.3961 37.8731 46.1558 38.0406 45.9712C38.2082 45.7866 38.4384 45.671 38.6865 45.647H41.9115C42.1596 45.671 42.3899 45.7866 42.5574 45.9712C42.725 46.1558 42.8178 46.3961 42.8178 46.6454C42.8178 46.8947 42.725 47.135 42.5574 47.3196C42.3899 47.5042 42.1596 47.6198 41.9115 47.6439Z" fill="white"/>
<path d="M17.2272 65.1748C22.8449 65.1748 27.399 60.6207 27.399 55.0029C27.399 49.3852 22.8449 44.8311 17.2272 44.8311C11.6094 44.8311 7.0553 49.3852 7.0553 55.0029C7.0553 60.6207 11.6094 65.1748 17.2272 65.1748Z" fill="#21325E"/>
<path d="M17.2084 58.9127C16.4325 58.9145 15.6736 58.686 15.0277 58.2562C14.3819 57.8263 13.8781 57.2144 13.5804 56.4979C13.2826 55.7815 13.2042 54.9928 13.3551 54.2317C13.506 53.4707 13.8794 52.7716 14.4281 52.223C14.9767 51.6744 15.6758 51.3009 16.4368 51.15C17.1978 50.9991 17.9866 51.0775 18.703 51.3753C19.4194 51.6731 20.0314 52.1768 20.4612 52.8226C20.8911 53.4685 21.1196 54.2275 21.1178 55.0033C21.1153 56.0394 20.7026 57.0323 19.97 57.7649C19.2374 58.4975 18.2445 58.9102 17.2084 58.9127Z" fill="white"/>
<path d="M74.4896 65.1748C80.1074 65.1748 84.6615 60.6207 84.6615 55.0029C84.6615 49.3852 80.1074 44.8311 74.4896 44.8311C68.8719 44.8311 64.3177 49.3852 64.3177 55.0029C64.3177 60.6207 68.8719 65.1748 74.4896 65.1748Z" fill="#21325E"/>
<path d="M74.4896 58.9127C73.7138 58.9145 72.9548 58.686 72.309 58.2562C71.6631 57.8263 71.1594 57.2144 70.8616 56.4979C70.5639 55.7815 70.4855 54.9928 70.6364 54.2317C70.7873 53.4707 71.1607 52.7716 71.7093 52.223C72.2579 51.6744 72.957 51.3009 73.7181 51.15C74.4791 50.9991 75.2678 51.0775 75.9842 51.3753C76.7007 51.6731 77.3126 52.1768 77.7425 52.8226C78.1724 53.4685 78.4009 54.2275 78.399 55.0033C78.3965 56.0394 77.9839 57.0323 77.2512 57.7649C76.5186 58.4975 75.5257 58.9102 74.4896 58.9127Z" fill="white"/>
<path d="M89.5552 44.1844L77.2084 41.1563C76.7366 41.0399 76.2931 40.8299 75.904 40.5389C75.5149 40.2478 75.1883 39.8815 74.9434 39.4618C74.6986 39.0421 74.5406 38.5775 74.4787 38.0956C74.4169 37.6136 74.4525 37.1242 74.5834 36.6562L85.599 37.7906C86.6043 37.9061 87.5366 38.3729 88.2313 39.1088C88.9259 39.8446 89.3384 40.8022 89.3959 41.8125L89.5552 44.1844Z" fill="#21325E"/>
<path d="M88.1208 38.9905C88.3534 39.1808 88.513 39.4457 88.5727 39.7402C88.6324 40.0347 88.5885 40.3407 88.4484 40.6066C88.3084 40.8724 88.0807 41.0817 87.804 41.1989C87.5273 41.3162 87.2186 41.3342 86.9302 41.2499L79.1677 39.3749C78.8931 39.3136 78.653 39.1482 78.4978 38.9136C78.3425 38.6789 78.2843 38.3933 78.3353 38.1166C78.3862 37.8399 78.5424 37.5937 78.7711 37.4298C78.9998 37.2658 79.283 37.1969 79.5615 37.2374L85.5615 37.8562C86.5181 37.9349 87.42 38.3346 88.1208 38.9905Z" fill="white"/>
<path d="M53.2177 45.2811C53.0669 45.2881 52.9166 45.2586 52.7797 45.195C52.6427 45.1315 52.5232 45.0359 52.4311 44.9162C52.3391 44.7965 52.2773 44.6564 52.251 44.5078C52.2247 44.3591 52.2347 44.2063 52.2802 44.0623L53.4896 40.1436C53.5686 39.9131 53.7343 39.7225 53.9515 39.6121C54.1686 39.5017 54.4203 39.4801 54.653 39.552C54.8858 39.6239 55.0815 39.7836 55.1985 39.9973C55.3156 40.211 55.3449 40.4618 55.2802 40.6967L54.0708 44.6155C54.0148 44.801 53.9028 44.9646 53.75 45.0838C53.5972 45.203 53.4113 45.2719 53.2177 45.2811ZM56.5833 45.2811C56.4325 45.2881 56.2823 45.2586 56.1453 45.195C56.0084 45.1315 55.8888 45.0359 55.7967 44.9162C55.7047 44.7965 55.6429 44.6564 55.6166 44.5078C55.5904 44.3591 55.6004 44.2063 55.6458 44.0623L56.8552 40.1436C56.9342 39.9131 57.0999 39.7225 57.3171 39.6121C57.5343 39.5017 57.7859 39.4801 58.0187 39.552C58.2515 39.6239 58.4471 39.7836 58.5642 39.9973C58.6812 40.211 58.7105 40.4618 58.6458 40.6967L57.4271 44.6155C57.3716 44.7995 57.261 44.9621 57.11 45.0812C56.9591 45.2002 56.7752 45.27 56.5833 45.2811ZM59.8458 45.2811C59.6989 45.2805 59.5542 45.2454 59.4234 45.1787C59.2926 45.1119 59.1792 45.0153 59.0926 44.8967C59.0059 44.7781 58.9483 44.6408 58.9245 44.4959C58.9006 44.351 58.9111 44.2025 58.9552 44.0623L60.1646 40.1436C60.2436 39.9131 60.4093 39.7225 60.6265 39.6121C60.8436 39.5017 61.0953 39.4801 61.328 39.552C61.5608 39.6239 61.7565 39.7836 61.8735 39.9973C61.9906 40.211 62.0199 40.4618 61.9552 40.6967L60.7458 44.6155C60.6873 44.8084 60.5682 44.9774 60.4061 45.0973C60.2439 45.2172 60.0475 45.2817 59.8458 45.2811Z" fill="#21325E"/>
<path d="M33.6521 44.5405H32.0115C31.7628 44.5405 31.5244 44.4418 31.3486 44.2659C31.1727 44.0901 31.074 43.8517 31.074 43.603C31.074 43.3544 31.1727 43.1159 31.3486 42.9401C31.5244 42.7643 31.7628 42.6655 32.0115 42.6655H33.6521C33.9007 42.6655 34.1392 42.7643 34.315 42.9401C34.4908 43.1159 34.5896 43.3544 34.5896 43.603C34.5896 43.8517 34.4908 44.0901 34.315 44.2659C34.1392 44.4418 33.9007 44.5405 33.6521 44.5405Z" fill="white"/>
<path d="M33.2959 40.3125H28.6084L26.5834 31.6687C26.5039 31.3317 26.502 30.9811 26.5778 30.6433C26.6535 30.3054 26.805 29.9892 27.0207 29.7184C27.2364 29.4475 27.5108 29.2292 27.8232 29.0799C28.1356 28.9306 28.4778 28.8541 28.824 28.8562C29.3469 28.8541 29.8548 29.0303 30.2639 29.3559C30.673 29.6815 30.9588 30.1369 31.074 30.6469L33.2959 40.3125Z" fill="#21325E"/>
<path d="M29.5833 34.2844C29.8637 34.2828 30.1402 34.2184 30.3924 34.0959C30.6447 33.9733 30.8662 33.7958 31.0407 33.5763C31.2152 33.3568 31.3382 33.101 31.4008 32.8276C31.4633 32.5543 31.4638 32.2704 31.4021 31.9969L31.1302 30.7969C31.0233 30.2647 30.7405 29.7839 30.3273 29.4319C29.9141 29.0799 29.3945 28.8772 28.8521 28.8562C28.5056 28.8545 28.1633 28.9311 27.8507 29.0804C27.538 29.2296 27.2632 29.4477 27.0468 29.7182C26.8304 29.9888 26.6779 30.3047 26.6009 30.6425C26.5239 30.9803 26.5243 31.3311 26.6021 31.6687L26.6677 31.9594C26.8185 32.6198 27.1891 33.2096 27.7188 33.6319C28.2485 34.0543 28.9059 34.2844 29.5833 34.2844Z" fill="#FF0000"/>
<path d="M58.4959 50.1655H54.1646C53.4294 50.1655 52.8334 50.7595 52.8334 51.4921C52.8334 52.2247 53.4294 52.8187 54.1646 52.8187H58.4959C59.2311 52.8187 59.8271 52.2247 59.8271 51.4921C59.8271 50.7595 59.2311 50.1655 58.4959 50.1655Z" fill="#21325E"/>
</g>
<defs>
<clipPath id="clip0_2636_392">
<rect width="90" height="90" fill="white" transform="translate(0.333374)"/>
</clipPath>
</defs>
</svg>
