<svg width="60" height="60" viewBox="0 0 60 60" fill="none" xmlns="http://www.w3.org/2000/svg">
<path d="M50.9265 23.6378C50.664 23.6378 50.4015 23.6565 50.1577 23.7126C50.0452 14.3188 42.3767 6.7251 32.964 6.7251H28.1265C18.7142 6.7251 11.0452 14.3188 10.9327 23.7126C10.6702 23.6565 10.389 23.6378 10.1077 23.6378C7.63273 23.6378 5.60773 25.6626 5.60773 28.1376V33.8378C5.60773 36.3313 7.63273 38.3563 10.1077 38.3563H10.164C12.6577 38.3563 14.6827 36.3313 14.6827 33.8378V23.9188C14.6827 16.494 20.7017 10.4751 28.1265 10.4751H32.964C40.3892 10.4751 46.4077 16.494 46.4077 23.9188V33.8378C46.4077 35.1688 46.989 36.3688 47.9079 37.1751C47.8892 38.8628 47.5329 43.9626 43.8577 47.4688C40.539 50.6563 35.289 51.8565 28.2765 51.0315C27.2452 50.919 26.3077 51.6503 26.1952 52.6815C26.0827 53.7126 26.8142 54.6501 27.8454 54.7626C29.4015 54.9503 30.8827 55.0253 32.3079 55.0253C38.3452 55.0253 43.1077 53.394 46.4829 50.1501C50.5515 46.2503 51.4515 41.094 51.6202 38.3003C53.7952 38.0001 55.4827 36.1063 55.4827 33.8378V28.1376C55.4827 25.6626 53.4577 23.6378 50.9265 23.6378ZM10.9327 33.8378C10.9327 34.2501 10.5765 34.6063 10.164 34.6063H10.1077C9.69523 34.6063 9.35773 34.2501 9.35773 33.8378V28.1376C9.35773 27.7253 9.69541 27.3878 10.1642 27.3878C10.5767 27.3878 10.9329 27.7253 10.9329 28.1376V33.8378H10.9327ZM51.7327 33.8378C51.7327 34.2501 51.3952 34.6063 50.9827 34.6063H50.9265C50.514 34.6063 50.1577 34.2501 50.1577 33.8378V28.1376C50.1577 27.7253 50.514 27.3878 50.9827 27.3878C51.3952 27.3878 51.7327 27.7253 51.7327 28.1376V33.8378Z" fill="white"/>
<path d="M51.7327 28.1375V33.8377C51.7327 34.25 51.3952 34.6063 50.9827 34.6063H50.9265C50.514 34.6063 50.1577 34.25 50.1577 33.8377V28.1375C50.1577 27.7252 50.514 27.3877 50.9827 27.3877C51.3952 27.3877 51.7327 27.7252 51.7327 28.1375ZM10.9327 28.1375V33.8377C10.9327 34.25 10.5765 34.6063 10.164 34.6063H10.1077C9.69523 34.6063 9.35773 34.25 9.35773 33.8377V28.1375C9.35773 27.7252 9.69541 27.3877 10.1642 27.3877C10.5765 27.3877 10.9327 27.7252 10.9327 28.1375Z" fill="#FF0000"/>
<path d="M32.1954 12.7065H28.8953C22.1267 12.7065 16.6142 18.219 16.6142 24.9876V35.469C16.6142 42.2378 22.1267 47.7503 28.8953 47.7503H32.1954C38.964 47.7503 44.4578 42.2378 44.4578 35.469V24.9876C44.4578 18.219 38.964 12.7065 32.1954 12.7065ZM40.7078 35.469C40.7078 40.1753 36.8829 44.0003 32.1954 44.0003H28.8953C24.189 44.0003 20.3642 40.1753 20.3642 35.469V27.8939C21.714 28.7564 23.3265 29.2628 25.0517 29.2628C28.7829 29.2628 31.9517 26.9378 33.189 23.6565C34.7453 25.1753 36.8829 26.094 39.2453 26.094C39.7515 26.094 40.239 26.0564 40.7078 25.9628V35.469Z" fill="white"/>
<path d="M40.7015 25.9688V35.4751C40.7015 40.1813 36.8765 44.0063 32.189 44.0063H28.889C24.183 44.0063 20.3578 40.1813 20.3578 35.4751V27.9001C21.7078 28.7626 23.3203 29.2688 25.0453 29.2688C28.7765 29.2688 31.9453 26.9438 33.1828 23.6626C34.739 25.1813 36.8765 26.1001 39.239 26.1001C39.7453 26.1001 40.2328 26.0626 40.7015 25.9688Z" fill="#FF0000"/>
<path d="M36.6015 36.6499C36.6015 39.3499 33.4515 41.5624 30.7328 41.5624C28.0328 41.5624 24.8828 39.3499 24.8828 36.6499H36.6015Z" fill="white"/>
</svg>
