<svg width="61" height="60" viewBox="0 0 61 60" fill="none" xmlns="http://www.w3.org/2000/svg">
<path d="M30.5 2.8125C24.5326 2.8125 18.8097 5.18302 14.5901 9.40258C10.3706 13.6221 8.00001 19.3451 8 25.3124V37.5H11.75V25.3125C11.75 20.3397 13.7254 15.5706 17.2417 12.0542C20.7581 8.53794 25.5272 6.5625 30.5 6.5625C35.4728 6.5625 40.2419 8.53794 43.7583 12.0542C47.2746 15.5706 49.25 20.3397 49.25 25.3125V37.5H53V25.3124C53 19.3451 50.6295 13.6221 46.4099 9.40258C42.1903 5.18302 36.4674 2.8125 30.5 2.8125Z" fill="#FF0000"/>
<path d="M20.1875 24.8438H18.3125C17.277 24.8438 16.4375 25.6832 16.4375 26.7188V47.3438C16.4375 48.3793 17.277 49.2188 18.3125 49.2188H20.1875C21.223 49.2188 22.0625 48.3793 22.0625 47.3438V26.7188C22.0625 25.6832 21.223 24.8438 20.1875 24.8438Z" fill="#FF0000"/>
<path d="M12.6875 27.6562H16.4375C16.9348 27.6562 17.4117 27.8538 17.7633 28.2054C18.115 28.5571 18.3125 29.034 18.3125 29.5312V44.5312C18.3125 45.0285 18.115 45.5054 17.7633 45.8571C17.4117 46.2087 16.9348 46.4062 16.4375 46.4062H12.6875V27.6562Z" fill="white"/>
<path d="M40.8125 49.2188H42.6875C43.723 49.2188 44.5625 48.3793 44.5625 47.3438V26.7188C44.5625 25.6832 43.723 24.8438 42.6875 24.8438H40.8125C39.777 24.8438 38.9375 25.6832 38.9375 26.7188V47.3438C38.9375 48.3793 39.777 49.2188 40.8125 49.2188Z" fill="#FF0000"/>
<path d="M48.3125 46.4062H44.5625C44.0652 46.4062 43.5883 46.2087 43.2367 45.8571C42.885 45.5054 42.6875 45.0285 42.6875 44.5312V29.5312C42.6875 29.034 42.885 28.5571 43.2367 28.2054C43.5883 27.8538 44.0652 27.6562 44.5625 27.6562H48.3125V46.4062Z" fill="white"/>
<path d="M12.494 48.2164C12.5182 48.219 12.5414 48.2248 12.5656 48.2273C12.9176 48.2632 13.2712 48.2812 13.625 48.2813V25.7813C13.2712 25.7813 12.9176 25.7993 12.5656 25.8352C12.5414 25.8377 12.5182 25.8435 12.494 25.8461C12.1703 25.8815 11.8502 25.9289 11.5362 25.9935C11.524 25.996 11.5125 26.0002 11.5003 26.0027C9.18522 26.4905 7.10818 27.7594 5.61745 29.5967C4.12672 31.4339 3.31292 33.7278 3.3125 36.0938V37.9688C3.31292 40.3347 4.12672 42.6286 5.61745 44.4658C7.10818 46.3031 9.18522 47.572 11.5003 48.0598C11.5125 48.0623 11.524 48.0665 11.5362 48.069C11.8502 48.1336 12.1703 48.181 12.494 48.2164ZM51.4095 26.6015C50.1338 26.0588 48.7614 25.7798 47.375 25.7813V48.2813C48.7294 48.2819 50.0707 48.0156 51.3222 47.4976C52.5737 46.9796 53.7108 46.22 54.6685 45.2623C55.6262 44.3045 56.3858 43.1674 56.9039 41.916C57.4219 40.6645 57.6882 39.3232 57.6875 37.9688V36.0938C57.6876 34.0702 57.0924 32.0913 55.9761 30.4034C54.8598 28.7156 53.2717 27.3934 51.4095 26.6015Z" fill="white"/>
<path d="M34.25 51.5625H27.6875C26.1342 51.5625 24.875 52.8217 24.875 54.375C24.875 55.9283 26.1342 57.1875 27.6875 57.1875H34.25C35.8033 57.1875 37.0625 55.9283 37.0625 54.375C37.0625 52.8217 35.8033 51.5625 34.25 51.5625Z" fill="#21325E"/>
<path d="M7.53125 26.6579V36.1571C7.53604 36.4026 7.63693 36.6364 7.81223 36.8083C7.98753 36.9802 8.22326 37.0765 8.46878 37.0765C8.7143 37.0765 8.95003 36.9802 9.12532 36.8083C9.30061 36.6363 9.40147 36.4025 9.40625 36.1571V26.6579C9.40146 26.4125 9.30059 26.1786 9.12529 26.0067C8.95 25.8348 8.71427 25.7385 8.46875 25.7385C8.22323 25.7385 7.9875 25.8348 7.8122 26.0067C7.63691 26.1786 7.53604 26.4125 7.53125 26.6579ZM51.5938 26.6579V36.1571C51.5985 36.4026 51.6994 36.6364 51.8747 36.8083C52.05 36.9802 52.2858 37.0765 52.5313 37.0765C52.7768 37.0765 53.0125 36.9802 53.1878 36.8083C53.3631 36.6363 53.464 36.4025 53.4688 36.1571V26.6579C53.464 26.4125 53.3631 26.1786 53.1878 26.0067C53.0125 25.8348 52.7768 25.7385 52.5312 25.7385C52.2857 25.7385 52.05 25.8348 51.8747 26.0067C51.6994 26.1786 51.5985 26.4125 51.5938 26.6579Z" fill="#FF0000"/>
<path d="M53.9375 26.9322C54.1578 23.7193 53.7152 20.4954 52.6371 17.4607C51.559 14.4261 49.8685 11.6454 47.6706 9.29162C45.4726 6.93779 42.8142 5.061 39.8604 3.77784C36.9066 2.49467 33.7205 1.83252 30.5 1.83252C27.2795 1.83252 24.0934 2.49467 21.1396 3.77784C18.1858 5.061 15.5274 6.93779 13.3294 9.29162C11.1315 11.6454 9.44097 14.4261 8.36289 17.4607C7.28481 20.4954 6.84218 23.7193 7.0625 26.9322C5.61355 27.9711 4.4327 29.34 3.6176 30.9257C2.8025 32.5114 2.37656 34.2683 2.375 36.0512V37.9262C2.37833 40.9089 3.56467 43.7684 5.67373 45.8775C7.78279 47.9865 10.6423 49.1729 13.625 49.1762C13.7481 49.1762 13.87 49.152 13.9838 49.1049C14.0976 49.0578 14.2009 48.9887 14.288 48.9017C14.375 48.8146 14.4441 48.7113 14.4912 48.5975C14.5383 48.4837 14.5625 48.3618 14.5625 48.2387V47.3012H15.5C15.5008 48.0469 15.7974 48.7618 16.3247 49.289C16.8519 49.8163 17.5668 50.1129 18.3125 50.1137H20.1875C20.9332 50.1129 21.6481 49.8163 22.1753 49.289C22.7026 48.7618 22.9992 48.0469 23 47.3012V26.6762C22.9992 25.9305 22.7026 25.2156 22.1753 24.6884C21.6481 24.1611 20.9332 23.8645 20.1875 23.8637H18.3125C17.5668 23.8645 16.8519 24.1611 16.3247 24.6884C15.7974 25.2156 15.5008 25.9305 15.5 26.6762H14.5625C14.6516 25.052 14.382 24.6426 12.7089 24.8476C14.106 1.78212 46.9026 1.79973 48.2911 24.8476C46.6147 24.6419 46.349 25.0555 46.4375 26.6762H45.5C45.4992 25.9305 45.2026 25.2156 44.6753 24.6884C44.1481 24.1611 43.4332 23.8645 42.6875 23.8637H40.8125C40.0668 23.8645 39.3519 24.1611 38.8247 24.6884C38.2974 25.2156 38.0008 25.9305 38 26.6762V47.3012C38.0008 48.0469 38.2974 48.7618 38.8247 49.289C39.3519 49.8163 40.0668 50.1129 40.8125 50.1137H42.6875C43.4332 50.1129 44.1481 49.8163 44.6753 49.289C45.2026 48.7618 45.4992 48.0469 45.5 47.3012H46.4375C46.226 49.6322 47.3907 49.2258 49.1385 49.0239C48.4104 50.3466 47.3408 51.4499 46.0413 52.2186C44.7418 52.9874 43.2599 53.3936 41.75 53.3949H37.8669C37.6603 52.592 37.1931 51.8802 36.5385 51.3713C35.884 50.8623 35.0791 50.5849 34.25 50.5824H27.6875C26.6987 50.5913 25.7535 50.9903 25.0575 51.6926C24.3614 52.3949 23.9709 53.3437 23.9709 54.3325C23.9709 55.3213 24.3615 56.2701 25.0575 56.9723C25.7536 57.6746 26.6988 58.0736 27.6876 58.0824H34.25C35.0791 58.08 35.884 57.8026 36.5385 57.2936C37.1931 56.7846 37.6603 56.0729 37.8669 55.2699H41.75C43.8799 55.2662 45.9564 54.6037 47.6949 53.3732C49.4333 52.1427 50.7485 50.4045 51.4601 48.397C53.5684 47.574 55.3797 46.1347 56.6578 44.2669C57.9359 42.3991 58.6214 40.1894 58.625 37.9262V36.0512C58.6234 34.2683 58.1975 32.5114 57.3824 30.9257C56.5673 29.34 55.3865 27.9711 53.9375 26.9322ZM34.25 56.2074H27.6875C27.1902 56.2074 26.7133 56.0099 26.3617 55.6583C26.01 55.3066 25.8125 54.8297 25.8125 54.3324C25.8125 53.8352 26.01 53.3582 26.3617 53.0066C26.7133 52.655 27.1902 52.4574 27.6875 52.4574H34.25C34.7426 52.4646 35.2126 52.6653 35.5584 53.0161C35.9042 53.367 36.098 53.8398 36.098 54.3324C36.098 54.8251 35.9042 55.2979 35.5584 55.6488C35.2126 55.9996 34.7426 56.2003 34.25 56.2074ZM12.6875 47.2545C10.3762 47.0191 8.23421 45.9352 6.67574 44.2121C5.11727 42.4891 4.25299 40.2495 4.25 37.9262V36.0512C4.25208 34.4077 4.68627 32.7937 5.509 31.371C6.33174 29.9483 7.5141 28.767 8.9375 27.9455C10.0889 27.2816 11.3661 26.8652 12.6875 26.7229V47.2545ZM18.3125 25.7387H20.1875C20.4361 25.7389 20.6744 25.8378 20.8501 26.0136C21.0259 26.1893 21.1248 26.4276 21.125 26.6762V47.3012C21.1248 47.5498 21.0259 47.7881 20.8501 47.9638C20.6744 48.1396 20.4361 48.2384 20.1875 48.2387H18.3125C18.175 48.2361 18.0396 48.2042 17.9154 48.1451C17.7912 48.086 17.681 48.001 17.5923 47.8959C17.5035 47.7908 17.4382 47.668 17.4008 47.5356C17.3633 47.4033 17.3545 47.2645 17.375 47.1284C17.9218 46.9358 18.3956 46.5787 18.7313 46.106C19.067 45.6334 19.2482 45.0684 19.25 44.4887V29.4887C19.2482 28.909 19.067 28.344 18.7313 27.8713C18.3956 27.3987 17.9218 27.0415 17.375 26.8489C17.3545 26.7129 17.3632 26.5741 17.4007 26.4417C17.4382 26.3093 17.5034 26.1865 17.5922 26.0814C17.6809 25.9763 17.7911 25.8913 17.9153 25.8322C18.0396 25.7731 18.175 25.7412 18.3125 25.7387ZM16.4375 28.5512C16.6861 28.5514 16.9244 28.6503 17.1001 28.8261C17.2759 29.0018 17.3748 29.2401 17.375 29.4887V44.4887C17.3748 44.7373 17.2759 44.9756 17.1001 45.1513C16.9244 45.3271 16.6861 45.4259 16.4375 45.4262H14.5625V28.5512H16.4375ZM30.5 5.58244C25.2982 5.58883 20.31 7.65156 16.6229 11.3209C12.9358 14.9902 10.849 19.9684 10.8175 25.1701C10.1722 25.3359 9.54297 25.5593 8.9375 25.8375C8.86271 22.9587 9.36513 20.0941 10.4151 17.4126C11.4651 14.7311 13.0414 12.2871 15.0511 10.2245C17.0607 8.16196 19.4631 6.52271 22.1164 5.40343C24.7697 4.28416 27.6203 3.70751 30.5 3.70751C33.3797 3.70751 36.2303 4.28416 38.8836 5.40343C41.5369 6.52271 43.9393 8.16196 45.9489 10.2245C47.9586 12.2871 49.5349 14.7311 50.5849 17.4126C51.6349 20.0941 52.1373 22.9587 52.0625 25.8375C51.457 25.5593 50.8278 25.3359 50.1825 25.1701C50.151 19.9684 48.0642 14.9902 44.3771 11.3209C40.69 7.65156 35.7018 5.58883 30.5 5.58244ZM42.6875 48.2387H40.8125C40.5639 48.2384 40.3256 48.1396 40.1499 47.9638C39.9741 47.7881 39.8752 47.5498 39.875 47.3012V26.6762C39.8752 26.4276 39.9741 26.1893 40.1499 26.0136C40.3256 25.8378 40.5639 25.7389 40.8125 25.7387H42.6875C42.825 25.7413 42.9604 25.7732 43.0846 25.8323C43.2088 25.8914 43.319 25.9764 43.4077 26.0815C43.4965 26.1866 43.5618 26.3094 43.5992 26.4417C43.6367 26.5741 43.6455 26.7129 43.625 26.8489C43.0782 27.0415 42.6044 27.3987 42.2687 27.8713C41.933 28.344 41.7518 28.909 41.75 29.4887V44.4887C41.7518 45.0684 41.933 45.6334 42.2687 46.106C42.6044 46.5787 43.0782 46.9358 43.625 47.1284C43.6455 47.2644 43.6368 47.4033 43.5993 47.5356C43.5619 47.668 43.4966 47.7909 43.4078 47.896C43.3191 48.0011 43.2089 48.086 43.0847 48.1451C42.9605 48.2042 42.825 48.2361 42.6875 48.2387ZM44.5625 45.4262C44.3139 45.4259 44.0756 45.3271 43.8999 45.1513C43.7241 44.9756 43.6252 44.7373 43.625 44.4887V29.4887C43.6252 29.2401 43.7241 29.0018 43.8999 28.8261C44.0756 28.6503 44.3139 28.5514 44.5625 28.5512H46.4375V45.4262H44.5625ZM56.75 37.9262C56.7478 39.5817 56.3072 41.2072 55.473 42.6371C54.6387 44.0671 53.4406 45.2506 52.0005 46.0672C52.0598 45.3865 52.0805 44.703 52.0625 44.0199C52.0577 43.7745 51.9568 43.5407 51.7815 43.3688C51.6062 43.1969 51.3705 43.1006 51.125 43.1006C50.8794 43.1006 50.6437 43.1969 50.4684 43.3688C50.2931 43.5407 50.1923 43.7745 50.1875 44.02C50.2376 44.9997 50.1553 45.9818 49.9427 46.9394C49.4097 47.0928 48.8642 47.1983 48.3125 47.2545V26.7229C49.6256 26.9026 50.8958 27.3167 52.0625 27.9455C53.4859 28.767 54.6683 29.9483 55.491 31.371C56.3137 32.7937 56.7479 34.4077 56.75 36.0512V37.9262Z" fill="#21325E"/>
</svg>
