<svg width="16" height="12" viewBox="0 0 16 12" fill="none" xmlns="http://www.w3.org/2000/svg">
<path d="M14 0H2C0.875 0 0 0.90625 0 2V10C0 11.125 0.875 12 2 12H14C15.0938 12 16 11.125 16 10V2C16 0.90625 15.0938 0 14 0ZM2 1.5H14C14.25 1.5 14.5 1.75 14.5 2V2.71875L9.28125 7.03125C8.5625 7.625 7.40625 7.625 6.6875 7.03125L1.5 2.71875V2C1.5 1.75 1.71875 1.5 2 1.5ZM14 10.5H2C1.71875 10.5 1.5 10.2812 1.5 10V4.65625L5.75 8.21875C6.375 8.71875 7.15625 9 8 9C8.8125 9 9.59375 8.71875 10.2188 8.21875L14.5 4.65625V10C14.5 10.2812 14.25 10.5 14 10.5Z" fill="white"/>
</svg>
