<svg width="60" height="60" viewBox="0 0 60 60" fill="none" xmlns="http://www.w3.org/2000/svg">
<g clip-path="url(#clip0_11_347)">
<path d="M52.5 20.625V54.375C52.5 54.8723 52.3025 55.3492 51.9508 55.7008C51.5992 56.0525 51.1223 56.25 50.625 56.25H9.375C8.87772 56.25 8.40081 56.0525 8.04918 55.7008C7.69754 55.3492 7.5 54.8723 7.5 54.375V20.625C7.5 20.1277 7.69754 19.6508 8.04918 19.2992C8.40081 18.9475 8.87772 18.75 9.375 18.75H22.5C22.9973 18.75 23.4742 18.9475 23.8258 19.2992C24.1775 19.6508 24.375 20.1277 24.375 20.625V32.5875L29.1562 30.2063C29.418 30.0744 29.7069 30.0057 30 30.0057C30.2931 30.0057 30.582 30.0744 30.8438 30.2063L35.625 32.5875V20.625C35.625 20.1277 35.8225 19.6508 36.1742 19.2992C36.5258 18.9475 37.0027 18.75 37.5 18.75H50.625C51.1223 18.75 51.5992 18.9475 51.9508 19.2992C52.3025 19.6508 52.5 20.1277 52.5 20.625Z" fill="white"/>
<path d="M22.5 3.75H5.625C4.58947 3.75 3.75 4.58947 3.75 5.625V20.625C3.75 21.6605 4.58947 22.5 5.625 22.5H22.5C23.5355 22.5 24.375 21.6605 24.375 20.625V5.625C24.375 4.58947 23.5355 3.75 22.5 3.75Z" fill="#FF0000"/>
<path d="M54.375 3.75H37.5C36.4645 3.75 35.625 4.58947 35.625 5.625V20.625C35.625 21.6605 36.4645 22.5 37.5 22.5H54.375C55.4105 22.5 56.25 21.6605 56.25 20.625V5.625C56.25 4.58947 55.4105 3.75 54.375 3.75Z" fill="#FF0000"/>
<path d="M37.5 3.75H22.5C22.0027 3.75 21.5258 3.94754 21.1742 4.29917C20.8225 4.65081 20.625 5.12772 20.625 5.625V35.625C20.626 35.9446 20.7086 36.2587 20.8651 36.5374C21.0216 36.8161 21.2468 37.0501 21.5192 37.2173C21.7916 37.3845 22.1022 37.4793 22.4215 37.4927C22.7409 37.5061 23.0583 37.4376 23.3437 37.2937L30 33.975L36.6562 37.2937C36.9175 37.4276 37.2065 37.4982 37.5 37.5C37.851 37.5011 38.1954 37.4037 38.4938 37.2188C38.764 37.0499 38.9867 36.8149 39.1409 36.5361C39.2951 36.2572 39.3756 35.9436 39.375 35.625V5.625C39.375 5.12772 39.1775 4.65081 38.8258 4.29917C38.4742 3.94754 37.9973 3.75 37.5 3.75Z" fill="#FF0000"/>
</g>
<defs>
<clipPath id="clip0_11_347">
<rect width="60" height="60" fill="white"/>
</clipPath>
</defs>
</svg>
