<svg width="18" height="16" viewBox="0 0 18 16" fill="none" xmlns="http://www.w3.org/2000/svg">
<path d="M16.4062 1.78125L15.2188 0.59375C14.8438 0.21875 14.3125 0 13.8125 0C13.3125 0 12.7812 0.21875 12.4062 0.59375L1.96875 11.0312C1.875 11.0938 1.84375 11.1875 1.8125 11.2812L1 15.375C0.9375 15.7188 1.1875 16 1.46875 16C1.5 16 1.5625 16 1.59375 16L5.6875 15.1875C5.78125 15.1562 5.875 15.125 5.96875 15.0312L16.4062 4.59375C17.1875 3.8125 17.1875 2.5625 16.4062 1.78125ZM5.09375 13.7812L2.75 14.25L3.21875 11.9062L4 11.125V13H5.875L5.09375 13.7812ZM5.5 11.5V9.625L11 4.125L12.9062 6L7.375 11.5H5.5Z" fill="#21325E"/>
</svg>
