<svg width="44" height="57" viewBox="0 0 44 57" fill="none" xmlns="http://www.w3.org/2000/svg">
<path d="M34.5479 44.5789C32.6768 44.5789 31.0158 43.2431 30.6684 41.3373L24.3526 6.60043C23.9626 4.45622 25.3853 2.40043 27.5311 2.01201C29.6753 1.61412 31.7311 3.04306 32.1211 5.18885L38.4368 39.9257C38.8268 42.0699 37.4042 44.1257 35.2584 44.5157C35.02 44.5583 34.7816 44.5789 34.5479 44.5789Z" fill="#21325E"/>
<path d="M39.8816 38.6815C40.2589 37.5052 40.0868 36.1694 39.2895 35.1052C39.1963 34.982 38.5963 34.1815 37.6837 32.991C37.6916 32.9089 37.7105 32.8126 37.7105 32.7368C37.7105 32.0136 34.69 28.5952 31.8053 25.4957C29.2995 22.3947 26.6563 19.2589 24.7126 17.3152L22.701 15.302L20.1558 16.5762C11.1274 21.0889 6.50262 22.6631 6.46157 22.6773C4.39314 23.3657 3.27683 25.6015 3.96525 27.6699C4.65525 29.7383 6.88946 30.8515 8.95946 30.1662C9.1442 30.1047 13.1689 28.7468 21.0368 24.9399C22.7658 26.882 24.7916 29.3531 26.6816 31.7231L27.7931 33.5768C28.06 34.022 28.0221 34.5841 27.6968 34.9899L22.15 41.9247C22 42.1126 21.7995 42.2515 21.5737 42.3273L17.5774 43.6583C17.3216 43.7436 17.0468 43.7436 16.791 43.6583L9.3242 41.1699C8.25683 37.8826 8.48262 34.6931 8.48577 34.6583C8.67367 32.4857 7.0663 30.572 4.89367 30.3841C2.72735 30.182 0.808935 31.802 0.619461 33.9747C0.584725 34.3852 -0.185802 44.1162 5.85051 50.7004C9.33683 54.5041 14.2126 56.432 20.3421 56.432C21.3842 56.432 22.3679 56.4462 23.2963 56.4604C24.1316 56.4731 24.9416 56.4841 25.7231 56.4841C30.0874 56.4841 33.6242 56.1194 36.3621 53.4194C38.9674 50.852 40.0789 46.7957 40.0789 39.8531C40.0789 39.441 39.9984 39.0541 39.8816 38.6815Z" fill="#FF0000"/>
<path d="M37.7121 32.7368C37.1058 32.7368 36.5295 32.3879 36.2674 31.7989L29.9516 17.5884C29.5979 16.791 29.9563 15.8594 30.7537 15.5042C31.5526 15.1473 32.4826 15.5089 32.8379 16.3063L39.1537 30.5168C39.5074 31.3142 39.1489 32.2458 38.3516 32.601C38.1432 32.6942 37.9268 32.7368 37.7121 32.7368Z" fill="#21325E"/>
<path d="M34.1832 53.863L31.7658 46.3472C31.7658 46.3472 31.66 46.3646 31.4895 46.453C31.5179 46.4388 34.3647 44.882 35.3753 36.9746C36.5989 27.3825 34.1516 21.8167 34.1279 21.7615L33.981 21.3967L28.4547 5.44304C27.741 3.38409 28.8321 1.13567 30.8926 0.421982C32.95 -0.290123 35.2016 0.800934 35.9153 2.85988L41.391 18.6683C41.9863 20.0688 44.6058 27.0146 43.2053 37.9741C41.56 50.863 35.4005 53.4715 34.1832 53.863Z" fill="#FF0000"/>
</svg>
