<svg width="60" height="60" viewBox="0 0 60 60" fill="none" xmlns="http://www.w3.org/2000/svg">
<path d="M25.758 42.7563L17.4191 56.2177L14.9239 50.7521C14.7728 50.3445 14.3763 50.1399 13.98 50.1399H13.9701L13.9602 50.1403L7.91441 50.3798C7.91492 50.379 7.91546 50.3781 7.91603 50.3773L7.92024 50.371L7.92426 50.3645L14.8196 39.3081C15.7024 39.9328 16.8091 40.1617 17.9923 40.0372L17.9995 40.0364L18.0067 40.0355L21.1243 39.6158C22.385 39.459 23.6501 39.9838 24.4431 40.9841L25.758 42.7563ZM46.0398 50.0803L46.0299 50.0799H46.02C45.6199 50.0799 45.3029 50.3342 45.124 50.6026L45.1018 50.6359L45.0852 50.6723L42.5809 56.1577L34.2433 42.6983L35.6124 40.9298C35.6129 40.9291 35.6134 40.9285 35.6139 40.9279C36.4067 39.9251 37.6734 39.3988 38.9357 39.5558C38.9365 39.5559 38.9372 39.556 38.938 39.5561L42.0533 39.9755L42.0533 39.9756L42.0648 39.9769C43.2326 40.1066 44.3299 39.7964 45.2354 39.2402L52.1135 50.2688C52.1127 50.2732 52.1103 50.2817 52.1033 50.2924C52.095 50.3052 52.0847 50.3141 52.0773 50.3185C52.0767 50.3189 52.0763 50.3191 52.0758 50.3194L46.0398 50.0803Z" fill="#21325E" stroke="#21325E"/>
<path d="M30 33.96C36.1966 33.96 41.22 28.9367 41.22 22.74C41.22 16.5434 36.1966 11.52 30 11.52C23.8034 11.52 18.78 16.5434 18.78 22.74C18.78 28.9367 23.8034 33.96 30 33.96Z" fill="#21325E"/>
<path d="M45.5363 18.5772L45.5383 18.5787L47.7539 20.2554C47.7546 20.2559 47.7552 20.2564 47.7559 20.257C49.3483 21.4919 49.3624 23.9814 47.7519 25.2862L45.5383 26.9613L45.5363 26.9629C44.3742 27.8515 43.7602 29.3486 43.9646 30.7878C43.9647 30.7888 43.9649 30.7898 43.965 30.7908L44.3241 33.5436C44.3241 33.5438 44.3241 33.5439 44.3241 33.544C44.5827 35.563 42.8747 37.3223 40.8032 37.0641C40.8028 37.064 40.8024 37.064 40.802 37.0639L38.0507 36.7051C38.0497 36.7049 38.0487 36.7048 38.0477 36.7046C36.6086 36.5002 35.1115 37.1142 34.2228 38.2763L34.2213 38.2783L32.546 40.4922C32.5453 40.4932 32.5445 40.4941 32.5438 40.495C31.2392 42.1613 28.7553 42.1471 27.52 40.5L27.5187 40.4983L25.8387 38.2783L25.8372 38.2763C24.9485 37.1142 23.4514 36.5002 22.0123 36.7046C22.0113 36.7048 22.0103 36.7049 22.0093 36.7051L19.2564 37.0641C19.2563 37.0641 19.2562 37.0641 19.2561 37.0641C17.2371 37.3228 15.4778 35.6149 15.736 33.5433C15.736 33.5429 15.7361 33.5425 15.7361 33.5421L16.0954 30.7876C16.2998 29.3485 15.6858 27.8515 14.5237 26.9629L14.5217 26.9613L12.3049 25.2838C10.6387 23.9792 10.653 21.4953 12.3 20.26L12.3017 20.2587L14.5217 18.5788L14.5237 18.5772C15.6858 17.6886 16.2998 16.1916 16.0954 14.7525L15.7359 11.9965C15.7359 11.9963 15.7359 11.9961 15.7359 11.996C15.4774 9.97701 17.1853 8.21788 19.2568 8.47603C19.2572 8.47609 19.2576 8.47614 19.258 8.47619L22.0124 8.83547C23.4515 9.03986 24.9485 8.42584 25.8372 7.26378L25.8387 7.26177L27.5163 5.04498C28.8209 3.37879 31.3047 3.393 32.54 5.04005L32.5413 5.04177L34.2213 7.26177L34.2228 7.26377C35.1115 8.42584 36.6085 9.03986 38.0476 8.83546L40.8036 8.47599C40.8037 8.47597 40.8039 8.47595 40.8041 8.47593C42.8231 8.2174 44.5822 9.92537 44.324 11.9969C44.324 11.9973 44.3239 11.9976 44.3239 11.998L43.965 14.7493C43.9649 14.7503 43.9647 14.7513 43.9646 14.7523C43.7601 16.1915 44.3742 17.6886 45.5363 18.5772ZM16.18 22.74C16.18 30.3977 22.4053 36.56 30 36.56C37.5947 36.56 43.82 30.3977 43.82 22.74C43.82 15.0824 37.5947 8.92005 30 8.92005C22.3424 8.92005 16.18 15.1454 16.18 22.74Z" fill="#FF0000" stroke="#21325E"/>
</svg>
