<svg width="17" height="15" viewBox="0 0 17 15" fill="none" xmlns="http://www.w3.org/2000/svg">
<path d="M15.875 2.23047L13.4844 13.4102C13.2969 14.207 12.8633 14.418 12.1836 14.043L8.5625 11.3711L6.80469 13.0586C6.57031 13.293 6.32422 13.4102 6.06641 13.4102L6.34766 9.71875L13.0625 3.67188C13.2266 3.50781 13.2266 3.41406 13.0625 3.39062C12.9219 3.34375 12.7695 3.37891 12.6055 3.49609L4.30859 8.73438L0.722656 7.60938C0.324219 7.49219 0.136719 7.31641 0.160156 7.08203C0.183594 6.84766 0.429688 6.64844 0.898438 6.48438L14.8555 1.07031C15.207 0.953125 15.4883 1 15.6992 1.21094C15.9102 1.39844 15.9688 1.73828 15.875 2.23047Z" fill="white"/>
</svg>
