<svg width="60" height="60" viewBox="0 0 60 60" fill="none" xmlns="http://www.w3.org/2000/svg">
<path d="M57.375 38.8124C56.4375 37.5936 54.75 37.4061 53.5312 38.3436L41.9062 46.8749C42.0938 45.5624 41.1562 44.4374 39.8438 44.2499C39.8438 44.2499 31.125 43.1249 28.3125 42.2811C25.4062 41.5311 20.25 38.3436 17.25 38.0624C13.875 37.6874 3.75 38.0624 3.75 38.0624V51.0936C3.75 51.0936 12 51.6561 15.0938 52.4999C20.25 53.9999 30.4688 59.9061 35.8125 58.9686C42.375 57.8436 57 42.8436 57 42.8436C58.125 41.9061 58.4062 40.0311 57.375 38.8124Z" fill="white"/>
<path d="M9.5625 56.8125H4.59375C3.1875 56.8125 2.0625 55.6875 2.0625 54.2813V35.0625C2.0625 33.6563 3.1875 32.5312 4.59375 32.5312H9.5625C10.9688 32.5312 12.0938 33.6563 12.0938 35.0625V54.2813C12.0938 55.6875 10.9688 56.8125 9.5625 56.8125Z" fill="#21325E"/>
<path d="M28.7813 47.7188L39.2813 48.9375C40.5938 49.125 41.7188 48.1875 41.9063 46.875C42.0938 45.5625 41.1563 44.4375 39.8438 44.25C39.8438 44.25 31.125 43.125 28.3125 42.2812C25.4063 41.5312 20.25 38.3437 17.25 38.0625C16.6875 37.9687 15.8438 37.9688 14.9062 37.875" stroke="#21325E" stroke-width="1.5" stroke-miterlimit="10" stroke-linecap="round" stroke-linejoin="round"/>
<path d="M44.625 44.9063L53.4375 38.3438C54.6562 37.4063 56.3437 37.6875 57.2812 38.8125C58.2187 40.0313 58.0312 41.8125 56.8125 42.75C56.8125 42.75 42.1875 57.75 35.625 58.875C30.2812 59.8125 20.1562 53.9063 14.9062 52.4063L44.625 44.9063ZM9.5625 56.8125H4.59375C3.1875 56.8125 2.0625 55.6875 2.0625 54.2813V35.0625C2.0625 33.6563 3.1875 32.5312 4.59375 32.5312H9.5625C10.9688 32.5312 12.0937 33.6563 12.0937 35.0625V54.2813C12.0937 55.6875 10.9688 56.8125 9.5625 56.8125Z" stroke="#21325E" stroke-width="1.5" stroke-miterlimit="10" stroke-linecap="round" stroke-linejoin="round"/>
<path d="M49.125 23.8124L50.5313 10.7812C50.7188 9.37493 49.125 8.53118 48 9.46868L40.9688 15.2812C40.2188 15.8437 39.0938 15.6562 38.625 14.8124L35.5313 9.37493C34.9688 8.43743 33.4688 8.43743 32.8125 9.46868L29.7188 14.9062C29.25 15.7499 28.125 15.9374 27.375 15.3749L20.3438 9.56243C19.3125 8.71868 17.7188 9.56243 17.8125 10.8749L19.2188 23.9062C19.3125 24.6562 19.9688 25.3124 20.7188 25.3124H47.4375C48.375 25.2187 49.0313 24.6562 49.125 23.8124ZM19.7813 30.9374V32.6249C19.7813 33.4687 20.4375 34.1249 21.2813 34.1249H46.875C47.7188 34.1249 48.375 33.4687 48.375 32.6249V30.9374C48.375 30.0937 47.7188 29.4374 46.875 29.4374H21.375C20.5312 29.3437 19.7813 30.0937 19.7813 30.9374Z" fill="#FF0000" stroke="#21325E" stroke-width="1.5" stroke-miterlimit="10"/>
<path d="M51.5625 4.875C52.6498 4.875 53.5312 3.99356 53.5312 2.90625C53.5312 1.81894 52.6498 0.9375 51.5625 0.9375C50.4752 0.9375 49.5938 1.81894 49.5938 2.90625C49.5938 3.99356 50.4752 4.875 51.5625 4.875Z" fill="#FF0000" stroke="#21325E" stroke-width="1.5" stroke-miterlimit="10"/>
<path d="M34.2188 4.875C35.3061 4.875 36.1875 3.99356 36.1875 2.90625C36.1875 1.81894 35.3061 0.9375 34.2188 0.9375C33.1314 0.9375 32.25 1.81894 32.25 2.90625C32.25 3.99356 33.1314 4.875 34.2188 4.875Z" fill="#FF0000" stroke="#21325E" stroke-width="1.5" stroke-miterlimit="10"/>
<path d="M16.7812 4.875C17.8686 4.875 18.75 3.99356 18.75 2.90625C18.75 1.81894 17.8686 0.9375 16.7812 0.9375C15.6939 0.9375 14.8125 1.81894 14.8125 2.90625C14.8125 3.99356 15.6939 4.875 16.7812 4.875Z" fill="#FF0000" stroke="#21325E" stroke-width="1.5" stroke-miterlimit="10"/>
</svg>
